Coordinates
version=1
nRows=17
nColumns=36
inDegrees=yes

Units are S.I. units (second, meters, Newtons, ...)
If the header above contains a line with 'inDegrees', this indicates whether rotational values are in degrees (yes) or radians (no).

endheader
time	pelvis_tilt	pelvis_list	pelvis_rotation	pelvis_tx	pelvis_ty	pelvis_tz	hip_flexion_r	hip_adduction_r	hip_rotation_r	knee_angle_r	knee_angle_r_beta	ankle_angle_r	subtalar_angle_r	mtp_angle_r	hip_flexion_l	hip_adduction_l	hip_rotation_l	knee_angle_l	knee_angle_l_beta	ankle_angle_l	subtalar_angle_l	mtp_angle_l	lumbar_extension	lumbar_bending	lumbar_rotation	arm_flex_r	arm_add_r	arm_rot_r	elbow_flex_r	pro_sup_r	arm_flex_l	arm_add_l	arm_rot_l	elbow_flex_l	pro_sup_l
      0.00000000	     -1.55390021	     -1.95467419	     17.89883546	      1.13919929	      0.94339747	     -0.08203831	      2.99242792	      0.30071514	      1.27624107	      3.28629692	      0.05735670	      3.21608005	     -8.33533686	     -6.40649102	     14.24479993	      0.64546247	     -2.44714821	     16.84451427	      0.29399223	      3.33180749	    -11.72189615	     -6.40649102	     -7.27301687	      0.90160971	      2.87175305	     55.97304217	     14.43667881	     75.30698087	    108.57074272	     99.28121749	     39.97401044	      6.50852925	     63.12550775	    114.26714460	    103.56590041
      0.01666670	     -2.88066849	     -2.59778617	     16.34128517	      1.13690802	      0.93916894	     -0.07859365	      4.60574115	      0.41804371	      1.73437950	      2.46058788	      0.04294536	      4.13124716	     -5.13786513	     -6.66872578	     16.23132098	     -0.07662254	     -5.80410402	     17.77614346	      0.31025223	      4.33609037	    -10.67961905	     -6.66872578	     -5.11034266	      0.63880815	      3.83613291	     55.95274549	     13.93008677	     75.97054994	    110.52332603	    100.39641685	     40.22737379	      5.86615010	     65.02239505	    115.91341907	     96.09675437
      0.03333330	     -3.72598212	     -2.49440243	     15.48691811	      1.13841357	      0.93816898	     -0.07799962	      5.06301264	      0.18505579	      2.16548459	      1.74980328	      0.03053983	      4.41894173	     -4.69393813	     -6.88408224	     17.34878998	     -0.15925036	     -7.69891829	     18.29438615	      0.31929727	      3.95820784	    -10.27337039	     -6.88408224	     -4.20527681	     -0.11583190	      4.70727386	     55.65548650	     13.56233933	     77.18521019	    111.05146886	     99.94651687	     40.19967525	      5.73851333	     66.16851400	    116.03490035	     91.76813858
      0.05000000	     -4.21760163	     -2.26785745	     14.74208404	      1.13907080	      0.93623340	     -0.07737142	      5.43648554	     -0.03164907	      2.66145124	      1.48285346	      0.02588068	      4.82950084	     -4.37878962	     -7.09336687	     17.97844953	     -0.19812712	     -8.81665443	     18.83718739	      0.32877094	      4.04520986	     -9.84039347	     -7.09336687	     -3.81626895	     -0.65268175	      5.60748267	     56.00625182	     13.51348492	     78.34644942	    111.30758488	     96.99145993	     40.37323020	      6.23310473	     67.07838481	    115.52252370	     86.98024113
      0.06666670	     -4.43841528	     -2.11285544	     14.37513908	      1.13951095	      0.93618501	     -0.07712910	      5.47439067	     -0.15834325	      2.59139685	      1.27695206	      0.02228702	      5.20021980	     -3.66409557	     -7.15134953	     18.32685077	     -0.25829751	     -9.59017496	     19.44976149	      0.33946238	      4.37230075	     -9.18472359	     -7.15134953	     -3.56541099	     -0.76101785	      6.10559689	     56.14831716	     13.37895422	     79.31003530	    111.29749141	     96.39678608	     40.07320449	      6.70290554	     67.76522153	    115.30658179	     84.99112169
      0.08333330	     -4.60023127	     -1.93556490	     14.09694328	      1.13976108	      0.93664905	     -0.07655227	      5.50017098	     -0.31360923	      2.58291102	      1.15798783	      0.02021070	      5.22076469	     -3.29631035	     -7.32219505	     18.63995387	     -0.22326470	    -10.51613158	     19.84506039	      0.34636164	      4.50444270	     -8.75342120	     -7.32219505	     -3.28582303	     -0.88663855	      6.54018917	     55.94084661	     13.35768796	     79.65971273	    111.09690052	     95.08403567	     39.76237833	      6.94225685	     67.85250607	    114.98017506	     81.41534916
      0.10000000	     -4.72465596	     -1.74732713	     13.84001216	      1.13990272	      0.93688230	     -0.07630011	      5.56700338	     -0.51398027	      2.71626463	      1.10988023	      0.01937106	      5.24023192	     -3.15687584	     -7.41664641	     18.95365411	     -0.19469389	    -11.36220373	     20.20065522	      0.35256794	      4.40431857	     -8.39281100	     -7.41664641	     -3.07849448	     -0.98009312	      6.72481817	     55.61374855	     13.23139530	     79.95935139	    110.77358194	     93.51079586	     39.41187338	      7.09426164	     67.73439395	    114.92703690	     79.22112769
      0.11666670	     -4.78765344	     -1.58647253	     13.51669524	      1.13557870	      0.93715863	     -0.07315548	      5.76494452	     -0.62499324	      3.02003693	      1.15954121	      0.02023781	      5.27886469	     -2.99935126	     -7.41746361	     19.32319683	     -0.27069730	    -12.03595425	     20.58483921	      0.35927322	      3.95693920	     -8.54368024	     -7.41746361	     -3.22547960	     -1.08472857	      6.99373109	     55.99867478	     13.20065674	     79.59416716	    110.78842989	     93.42090054	     39.62553969	      7.08451157	     67.46636661	    115.00860311	     79.12294859
      0.13333330	     -4.81218247	     -1.43875203	     13.28288461	      1.13566079	      0.93741315	     -0.07298346	      5.84469704	     -0.73368507	      3.31289176	      1.13037584	      0.01972878	      5.28110356	     -2.91324202	     -7.45291121	     19.79188754	     -0.44742838	    -12.76312492	     21.31749746	      0.37206052	      3.46431516	     -8.79553919	     -7.45291121	     -3.49553468	     -1.30513134	      7.29592612	     56.05754539	     13.05205266	     79.48153584	    110.91223523	     91.22505958	     39.67481134	      7.13868784	     67.37862512	    115.01056637	     76.28048423
      0.15000000	     -4.84024013	     -1.27757428	     13.01571006	      1.13568994	      0.93782796	     -0.07248790	      5.94201320	     -0.89436632	      3.65157243	      1.08421294	      0.01892309	      5.13127755	     -2.83012400	     -7.47437388	     20.12110079	     -0.59272207	    -13.51664112	     21.90352582	      0.38228864	      2.95799923	     -8.90476160	     -7.47437388	     -3.70274577	     -1.51425917	      7.57332982	     56.33136413	     13.14575642	     79.52110164	    110.79105633	     90.06036332	     39.67598092	      7.08376679	     67.27857560	    115.10569916	     75.05996567
      0.16666670	     -4.86121265	     -1.23224315	     12.78200446	      1.13586558	      0.93763021	     -0.07246265	      6.02395851	     -0.96725989	      3.75492279	      1.02287191	      0.01785248	      5.09091245	     -2.54618554	     -7.48679394	     20.33979406	     -0.76563686	    -14.08560169	     22.31084625	      0.38939773	      2.71411866	     -9.04059956	     -7.48679394	     -3.94763663	     -1.59923946	      7.80124776	     56.31150863	     13.23151796	     79.64112614	    110.91210128	     89.47589903	     39.71034471	      7.11410871	     67.34291957	    115.29728792	     74.19842450
      0.18333330	     -4.89521786	     -1.22455889	     12.59000311	      1.13598000	      0.93777930	     -0.07213067	      6.09184438	     -1.00401087	      3.94692594	      0.97277916	      0.01697820	      4.94196828	     -2.35590938	     -7.49416205	     20.43338439	     -0.89216653	    -14.72921017	     22.43177902	      0.39150840	      2.66172721	     -8.97075039	     -7.49416205	     -4.09431066	     -1.61595071	      7.95468010	     56.05952416	     13.22628701	     79.66878711	    110.51885647	     88.90322303	     39.51300809	      6.82981979	     67.12564548	    115.33610156	     73.38618007
      0.20000000	     -4.87252934	     -1.20584880	     12.51332942	      1.13608805	      0.93748350	     -0.07223264	      6.04252553	     -1.05290655	      4.04035785	      0.90113334	      0.01572774	      4.89683570	     -2.16508501	     -7.49712527	     20.40415774	     -0.96899460	    -15.43005731	     22.43951139	      0.39164336	      2.53170760	     -9.02091288	     -7.49712527	     -4.24315060	     -1.64301473	      8.23998632	     55.90922344	     13.34687338	     79.80859738	    110.67249045	     88.10371061	     39.35473711	      6.89722649	     67.67110748	    115.72685210	     72.82380757
      0.21666670	     -4.83177495	     -1.24681411	     12.59416168	      1.14040947	      0.93580659	     -0.07490402	      5.81140411	     -1.10680158	      3.95350052	      0.83550747	      0.01458236	      4.78231883	     -2.17413943	     -7.49713931	     20.09569153	     -0.90229298	    -15.76484567	     22.10442020	      0.38579491	      2.69575287	     -9.01974824	     -7.49713931	     -4.12970687	     -1.50431053	      8.30668614	     55.57394497	     13.43908592	     79.93764857	    110.87915790	     88.08696501	     38.96093286	      6.94680898	     67.89536615	    115.85686768	     72.82160979
      0.23333330	     -4.74225454	     -1.12385039	     12.61561576	      1.14025636	      0.93800414	     -0.07475367	      5.53250852	     -1.27336810	      4.00140608	      0.74902379	      0.01307293	      4.78513886	     -2.02160782	     -7.49889016	     19.55131452	     -0.69824336	    -16.34344518	     21.47704989	      0.37484523	      2.84950249	     -8.44201954	     -7.49889016	     -4.19281558	     -1.62245225	      8.55836950	     55.24688648	     13.34532224	     79.87282152	    111.15806989	     86.71798540	     38.81686953	      6.98975777	     68.23354869	    116.00768117	     72.01249621
      0.25000000	     -4.62236508	     -1.07815616	     12.55281354	      1.13996187	      0.93808948	     -0.07446930	      5.27793296	     -1.31986997	      4.02969457	      0.68348001	      0.01192898	      4.93256826	     -1.85103759	     -7.49950304	     18.97453230	     -0.54223938	    -16.44880847	     20.75757167	      0.36228797	      3.02761609	     -8.07287713	     -7.49950304	     -4.20550982	     -1.60802580	      8.74995604	     55.11843400	     13.31238065	     79.81663956	    111.50037826	     86.40292488	     38.82771587	      7.05359929	     68.36788208	    115.95211701	     71.76290443
      0.26666670	     -4.61132186	     -1.03748451	     12.48854480	      1.13990261	      0.93758362	     -0.07452086	      5.18407645	     -1.37282750	      4.14324084	      0.62621895	      0.01092958	      5.10189861	     -1.91469591	     -7.49979754	     18.41726513	     -0.32048720	    -16.46931077	     19.90488218	      0.34740573	      3.54287573	     -7.57838103	     -7.49979754	     -4.11525749	     -1.68262962	      8.93450615	     55.07000222	     13.33758351	     79.67296768	    112.01108522	     85.79244962	     38.84321291	      6.85883554	     68.31971197	    116.01488042	     71.46574546
